Coordinates
version=1
nRows=19
nColumns=24
inDegrees=yes

Units are S.I. units (second, meters, Newtons, ...)
Angles are in degrees.

endheader
time	pelvis_tilt	pelvis_list	pelvis_rotation	pelvis_tx	pelvis_ty	pelvis_tz	hip_flexion_r	hip_adduction_r	hip_rotation_r	knee_angle_r	ankle_angle_r	subtalar_angle_r	mtp_angle_r	hip_flexion_l	hip_adduction_l	hip_rotation_l	knee_angle_l	ankle_angle_l	subtalar_angle_l	mtp_angle_l	lumbar_extension	lumbar_bending	lumbar_rotation
      3.29500000	    -14.97919837	     10.56344046	     -6.74743620	     -0.76333635	     -0.01650664	      0.00113217	     21.24825376	    -16.37276238	     -3.09664975	    -57.72603628	    -24.27069259	      6.01758703	     37.30844361	     26.69568752	      8.79463905	    -15.12675578	    -11.60431187	     -9.30575491	      4.89340125	      9.20913021	     15.41057787	    -13.59425337	      7.09034289
      3.30000000	    -14.84103892	     10.44775565	     -6.67563125	     -0.75751753	     -0.01556589	      0.00029485	     21.82669936	    -16.26163123	     -3.00083672	    -58.48740512	    -23.72627231	      6.31184059	     37.64710897	     26.01319687	      8.88639812	    -15.00417870	    -11.30701054	     -9.02794291	      5.10390685	      9.25460896	     15.23131892	    -13.48802314	      6.75397222
      3.30500000	    -14.67903127	     10.31208593	     -6.61149759	     -0.75177177	     -0.01456376	     -0.00052352	     22.37300646	    -16.11737482	     -2.88606029	    -59.16516620	    -23.28030409	      6.74103029	     38.15672347	     25.30146140	      8.95683597	    -14.83701874	    -10.99972544	     -8.79607703	      5.28022783	      9.26828687	     15.01687376	    -13.36638567	      6.38720841
      3.31000000	    -14.45164361	     10.15577225	     -6.54985761	     -0.74591764	     -0.01348269	     -0.00136376	     22.79708841	    -15.96280391	     -2.82009629	    -59.69575840	    -22.93962644	      7.04427764	     39.38888270	     24.49001696	      9.03057729	    -14.57687138	    -10.66269604	     -8.54310473	      5.34929378	      9.14261381	     14.74889211	    -13.22087596	      6.05427524
      3.31500000	    -14.38995676	      9.95544504	     -6.43297948	     -0.74019413	     -0.01263141	     -0.00223984	     23.40008891	    -15.73503019	     -2.76999172	    -60.25447152	    -22.47965100	      7.64945618	     39.82572570	     23.89772403	      9.03181223	    -14.36185338	    -10.39591979	     -8.30488391	      5.46252473	      9.20600998	     14.63190314	    -13.02045233	      5.66629785
      3.32000000	    -14.19423772	      9.81337617	     -6.30857149	     -0.73439285	     -0.01164778	     -0.00316933	     23.83125527	    -15.61258330	     -2.75504737	    -60.68860922	    -22.10841639	      8.23747329	     40.91978770	     23.12772909	      9.13830359	    -14.04020729	    -10.06056009	     -8.12813600	      5.42417046	      9.04497723	     14.38834208	    -12.89996296	      5.23478545
      3.32500000	    -14.14447098	      9.55430477	     -6.20615858	     -0.72870933	     -0.01080393	     -0.00399789	     24.41221719	    -15.28705744	     -2.69988344	    -61.10073822	    -21.71326811	      8.92632315	     41.39859961	     22.53797720	      9.06272383	    -13.75684499	     -9.79171430	     -7.87283955	      5.51117217	      9.07794692	     14.28351239	    -12.62798348	      4.89646863
      3.33000000	    -13.95078219	      9.35277619	     -6.06752529	     -0.72296865	     -0.00981351	     -0.00493918	     24.79450252	    -15.08377277	     -2.71593901	    -61.36762000	    -21.40834407	      9.48694193	     42.81307934	     21.76032916	      9.10858621	    -13.30619218	     -9.46084548	     -7.67388648	      5.39352661	      8.75447980	     14.02867128	    -12.44303181	      4.46961072
      3.33500000	    -13.90301790	      9.13541924	     -5.92783518	     -0.71733232	     -0.00905579	     -0.00577404	     25.35958481	    -14.81228665	     -2.69691415	    -61.68099618	    -20.97645594	     10.25259540	     43.27794488	     21.18189313	      9.07737887	    -13.05714092	     -9.18825863	     -7.46268972	      5.50907486	      8.77261970	     13.92852409	    -12.22886381	      4.06303667
      3.34000000	    -13.73207371	      8.90775882	     -5.78401902	     -0.71160358	     -0.00816378	     -0.00668658	     25.73726692	    -14.56494702	     -2.74436573	    -61.86176190	    -20.57928323	     10.85259575	     44.28228978	     20.42968383	      9.07832048	    -12.63331390	     -8.86300247	     -7.24964037	      5.41013929	      8.51569848	     13.70502906	    -12.00836553	      3.67255328
      3.34500000	    -13.64561178	      8.69663357	     -5.62809312	     -0.70600236	     -0.00744139	     -0.00754034	     26.22909390	    -14.31058845	     -2.77357989	    -62.05270857	    -20.12718081	     11.52139100	     44.88300089	     19.80559445	      9.05965845	    -12.33276229	     -8.58229796	     -7.03047907	      5.48433124	      8.45300256	     13.56320998	    -11.80548398	      3.27462094
      3.35000000	    -13.60270157	      8.44833378	     -5.50894609	     -0.70037930	     -0.00676702	     -0.00832875	     26.75801327	    -13.97976288	     -2.78576684	    -62.19471423	    -19.65975675	     12.14410886	     45.20883238	     19.22371411	      8.97609126	    -12.10170245	     -8.29328205	     -6.82000924	      5.55490456	      8.46218224	     13.48578905	    -11.54355746	      2.93124680
      3.35500000	    -13.42343589	      8.23342574	     -5.32772324	     -0.69473633	     -0.00597337	     -0.00923099	     27.09835704	    -13.74783514	     -2.88066044	    -62.25061742	    -19.20919231	     12.69218472	     45.77998778	     18.46971691	      8.97549159	    -11.72881060	     -7.96092051	     -6.64116309	      5.56863982	      8.31199628	     13.24645676	    -11.34803356	      2.49582719
      3.36000000	    -13.37717514	      7.99763940	     -5.19181267	     -0.68915727	     -0.00535483	     -0.01004837	     27.60553204	    -13.43327497	     -2.91554747	    -62.29007522	    -18.75745391	     13.20067868	     46.05876685	     17.88514675	      8.90198974	    -11.51203932	     -7.66096027	     -6.45184735	      5.66091480	      8.31091870	     13.16304432	    -11.09919025	      2.12771014
      3.36500000	    -13.30566011	      7.77081932	     -5.04462565	     -0.68359963	     -0.00478687	     -0.01087620	     28.07435849	    -13.14336477	     -2.99225313	    -62.29436249	    -18.25528036	     13.60797199	     46.27303540	     17.27952846	      8.83970552	    -11.27702383	     -7.36972080	     -6.24516780	      5.74682693	      8.32623089	     13.05100087	    -10.86424653	      1.79472671
      3.37000000	    -13.13092446	      7.53886957	     -4.85944138	     -0.67800976	     -0.00407869	     -0.01176134	     28.39033199	    -12.88325233	     -3.12929291	    -62.21679628	    -17.79785708	     13.91074496	     46.45263961	     16.53646743	      8.79731600	    -10.97887262	     -7.03489478	     -6.08675958	      5.83126719	      8.26866777	     12.82023315	    -10.64607361	      1.36276701
      3.37500000	    -13.08738929	      7.31283249	     -4.72686049	     -0.67250252	     -0.00359718	     -0.01256878	     28.88328802	    -12.57420264	     -3.19695008	    -62.13099800	    -17.32519173	     14.15959109	     46.52420759	     15.96646270	      8.71645608	    -10.77633861	     -6.74049724	     -5.89679568	      5.91809214	      8.29395492	     12.74324920	    -10.40015834	      1.04593630
      3.38000000	    -12.98530294	      7.06736118	     -4.53411875	     -0.66696742	     -0.00303174	     -0.01347614	     29.26277310	    -12.28789543	     -3.34295395	    -61.96962143	    -16.86685853	     14.35335769	     46.47743301	     15.32097850	      8.63711840	    -10.51539268	     -6.43060946	     -5.73724898	      6.04025082	      8.30260176	     12.58720076	    -10.15184432	      0.62804025
      3.38500000	    -12.86881506	      6.82297866	     -4.35404922	     -0.66148361	     -0.00250786	     -0.01435470	     29.62448783	    -11.99660714	     -3.49761921	    -61.77496617	    -16.37727941	     14.43458114	     46.28076835	     14.67010481	      8.55027392	    -10.25416642	     -6.13394000	     -5.56414816	      6.13086698	      8.30280042	     12.41746352	     -9.90213514	      0.24629856
